<?xml version="1.0" encoding="UTF-8"?>
<svg id="Layer_1" xmlns="http://www.w3.org/2000/svg" version="1.1" viewBox="0 0 550 350">
  <!-- Generator: Adobe Illustrator 30.0.0, SVG Export Plug-In . SVG Version: 2.1.1 Build 123)  -->
  <defs>
    <style>
      .st0 {
        fill: #fff;
      }
    </style>
  </defs>
  <g>
    <path class="st0" d="M85.507,253.845c-4.703,0-8.771-.724-12.207-2.17-3.436-1.446-6.103-3.585-8.002-6.413-1.899-2.829-2.887-6.298-2.964-10.405h11.509c.103,1.964.659,3.623,1.667,4.979s2.364,2.377,4.069,3.062,3.655,1.027,5.852,1.027c2.118,0,3.972-.311,5.561-.931s2.822-1.485,3.701-2.596c.878-1.111,1.318-2.39,1.318-3.837,0-1.317-.381-2.428-1.143-3.332-.763-.904-1.886-1.68-3.372-2.325-1.486-.646-3.327-1.214-5.522-1.705l-6.278-1.551c-5.063-1.188-8.984-3.067-11.761-5.638-2.777-2.57-4.166-5.948-4.166-10.134,0-3.487.936-6.535,2.81-9.146,1.873-2.608,4.443-4.644,7.711-6.103,3.268-1.46,7.02-2.189,11.257-2.189,4.288,0,8.027.736,11.218,2.208,3.19,1.473,5.677,3.526,7.46,6.162,1.782,2.635,2.712,5.696,2.79,9.184h-11.393c-.207-2.402-1.208-4.275-3.003-5.619-1.796-1.343-4.179-2.015-7.15-2.015-1.99,0-3.708.291-5.154.872-1.447.581-2.552,1.382-3.313,2.402-.762,1.021-1.143,2.189-1.143,3.507,0,1.37.407,2.513,1.221,3.43.814.917,1.938,1.68,3.372,2.286,1.434.607,3.042,1.118,4.824,1.531l5.271,1.278c2.558.568,4.902,1.324,7.033,2.267,2.131.943,3.972,2.087,5.522,3.43,1.55,1.344,2.738,2.933,3.565,4.767.826,1.835,1.24,3.927,1.24,6.277,0,3.54-.891,6.621-2.674,9.242-1.783,2.623-4.34,4.645-7.673,6.065-3.333,1.42-7.35,2.131-12.051,2.131Z"/>
    <path class="st0" d="M136.195,210.211v8.874h-25.963v-8.874h25.963ZM116.471,199.709h11.548v40.611c0,1.37.304,2.371.911,3.004s1.621.949,3.042.949c.517,0,1.182-.045,1.996-.136.814-.091,1.44-.175,1.88-.252l1.279,8.797c-1.163.284-2.377.484-3.643.601s-2.493.174-3.681.174c-4.392,0-7.711-1.014-9.959-3.042-2.248-2.027-3.372-4.992-3.372-8.894v-41.812Z"/>
    <path class="st0" d="M141.777,252.993v-42.781h11.199v7.401h.388c.775-2.609,2.066-4.579,3.875-5.909,1.808-1.331,3.953-1.996,6.433-1.996.62,0,1.266.026,1.938.077.671.053,1.252.13,1.744.232v10.23c-.491-.154-1.221-.277-2.189-.368-.969-.09-1.906-.136-2.81-.136-1.705,0-3.249.375-4.631,1.124-1.382.75-2.46,1.809-3.235,3.178-.775,1.37-1.163,2.984-1.163,4.844v24.104h-11.548Z"/>
    <path class="st0" d="M183.126,253.806c-2.738,0-5.192-.479-7.362-1.434-2.17-.955-3.875-2.383-5.115-4.282-1.24-1.898-1.86-4.256-1.86-7.072,0-2.402.439-4.404,1.318-6.006.878-1.602,2.079-2.894,3.604-3.875s3.261-1.725,5.212-2.229c1.95-.504,3.997-.858,6.142-1.065,2.505-.258,4.521-.497,6.045-.717,1.524-.22,2.635-.562,3.333-1.027.698-.465,1.046-1.162,1.046-2.093v-.193c0-1.188-.265-2.202-.794-3.042-.53-.839-1.298-1.485-2.306-1.938-1.007-.452-2.235-.678-3.681-.678-1.473,0-2.758.226-3.856.678-1.098.452-1.99,1.06-2.674,1.821-.685.763-1.169,1.621-1.453,2.577l-10.657-1.356c.594-2.583,1.73-4.792,3.41-6.627,1.679-1.834,3.823-3.235,6.433-4.204s5.581-1.453,8.913-1.453c2.428,0,4.733.284,6.917.853,2.183.568,4.127,1.447,5.832,2.635,1.705,1.188,3.042,2.693,4.011,4.515s1.453,3.998,1.453,6.529v28.87h-11.044v-5.968h-.349c-.698,1.344-1.622,2.525-2.771,3.546-1.15,1.021-2.525,1.815-4.127,2.383-1.602.568-3.475.853-5.619.853ZM186.381,245.707c1.834,0,3.436-.361,4.805-1.085,1.369-.723,2.441-1.691,3.216-2.906.775-1.214,1.163-2.583,1.163-4.107v-4.534c-.336.207-.833.413-1.492.62-.659.207-1.401.388-2.228.542-.827.155-1.66.298-2.5.427-.84.129-1.608.245-2.306.349-1.395.207-2.635.536-3.72.988s-1.925,1.06-2.519,1.821c-.595.762-.892,1.712-.892,2.848,0,1.085.277,2.003.833,2.752.555.749,1.317,1.317,2.286,1.705s2.086.581,3.352.581Z"/>
    <path class="st0" d="M236.875,210.211v8.874h-25.963v-8.874h25.963ZM217.151,199.709h11.548v40.611c0,1.37.304,2.371.911,3.004s1.621.949,3.042.949c.517,0,1.182-.045,1.996-.136.814-.091,1.44-.175,1.88-.252l1.279,8.797c-1.163.284-2.377.484-3.643.601s-2.493.174-3.681.174c-4.392,0-7.711-1.014-9.959-3.042-2.248-2.027-3.372-4.992-3.372-8.894v-41.812Z"/>
    <path class="st0" d="M255.09,253.806c-2.738,0-5.192-.479-7.362-1.434-2.17-.955-3.875-2.383-5.115-4.282-1.24-1.898-1.86-4.256-1.86-7.072,0-2.402.439-4.404,1.318-6.006.878-1.602,2.079-2.894,3.604-3.875s3.261-1.725,5.212-2.229c1.95-.504,3.997-.858,6.142-1.065,2.505-.258,4.521-.497,6.045-.717,1.524-.22,2.635-.562,3.333-1.027.698-.465,1.046-1.162,1.046-2.093v-.193c0-1.188-.265-2.202-.794-3.042-.53-.839-1.298-1.485-2.306-1.938-1.007-.452-2.235-.678-3.681-.678-1.473,0-2.758.226-3.856.678-1.098.452-1.99,1.06-2.674,1.821-.685.763-1.169,1.621-1.453,2.577l-10.657-1.356c.594-2.583,1.73-4.792,3.41-6.627,1.679-1.834,3.823-3.235,6.433-4.204s5.581-1.453,8.913-1.453c2.428,0,4.733.284,6.917.853,2.183.568,4.127,1.447,5.832,2.635,1.705,1.188,3.042,2.693,4.011,4.515s1.453,3.998,1.453,6.529v28.87h-11.044v-5.968h-.349c-.698,1.344-1.622,2.525-2.771,3.546-1.15,1.021-2.525,1.815-4.127,2.383-1.602.568-3.475.853-5.619.853ZM258.345,245.707c1.834,0,3.436-.361,4.805-1.085,1.369-.723,2.441-1.691,3.216-2.906.775-1.214,1.163-2.583,1.163-4.107v-4.534c-.336.207-.833.413-1.492.62-.659.207-1.401.388-2.228.542-.827.155-1.66.298-2.5.427-.84.129-1.608.245-2.306.349-1.395.207-2.635.536-3.72.988s-1.925,1.06-2.519,1.821c-.595.762-.892,1.712-.892,2.848,0,1.085.277,2.003.833,2.752.555.749,1.317,1.317,2.286,1.705s2.086.581,3.352.581Z"/>
    <path class="st0" d="M287.139,252.993v-57.739h38.48v9.92h-26.622v15.694h24.219v9.688h-24.219v22.437h-11.858Z"/>
    <path class="st0" d="M349.22,253.845c-4.314,0-8.054-.924-11.218-2.771-3.165-1.847-5.606-4.431-7.324-7.75-1.718-3.319-2.577-7.176-2.577-11.567,0-4.443.858-8.325,2.577-11.646,1.718-3.319,4.159-5.902,7.324-7.75,3.164-1.847,6.904-2.771,11.218-2.771,4.288,0,8.015.924,11.18,2.771,3.165,1.848,5.606,4.431,7.324,7.75,1.718,3.32,2.577,7.202,2.577,11.646,0,4.392-.859,8.248-2.577,11.567-1.718,3.319-4.16,5.903-7.324,7.75s-6.892,2.771-11.18,2.771ZM349.22,244.7c2.015,0,3.713-.555,5.096-1.666,1.382-1.11,2.435-2.642,3.158-4.592s1.085-4.191,1.085-6.724c0-2.558-.362-4.806-1.085-6.743s-1.776-3.461-3.158-4.572c-1.382-1.11-3.081-1.666-5.096-1.666s-3.72.556-5.115,1.666c-1.395,1.111-2.448,2.635-3.158,4.572-.711,1.938-1.065,4.186-1.065,6.743,0,2.532.354,4.773,1.065,6.724.71,1.95,1.757,3.481,3.139,4.592,1.381,1.111,3.093,1.666,5.134,1.666Z"/>
    <path class="st0" d="M376.425,252.993v-42.781h11.199v7.401h.388c.775-2.609,2.066-4.579,3.875-5.909,1.808-1.331,3.953-1.996,6.433-1.996.62,0,1.266.026,1.938.077.671.053,1.252.13,1.744.232v10.23c-.491-.154-1.221-.277-2.189-.368-.969-.09-1.906-.136-2.81-.136-1.705,0-3.249.375-4.631,1.124-1.382.75-2.46,1.809-3.235,3.178-.775,1.37-1.163,2.984-1.163,4.844v24.104h-11.548Z"/>
    <path class="st0" d="M424.246,270.043c-3.669,0-6.846-.479-9.533-1.434-2.688-.956-4.857-2.28-6.51-3.973-1.654-1.692-2.765-3.637-3.333-5.832l10.191-2.131c.361.853.917,1.652,1.666,2.402.749.749,1.737,1.356,2.965,1.821,1.227.465,2.732.697,4.514.697,2.919,0,5.206-.697,6.859-2.093,1.653-1.395,2.48-3.539,2.48-6.433v-7.595h-.698c-.594,1.266-1.408,2.436-2.441,3.507-1.033,1.072-2.338,1.932-3.914,2.577-1.576.646-3.475.969-5.696.969-3.308,0-6.291-.795-8.952-2.384-2.661-1.589-4.773-3.945-6.336-7.071-1.563-3.126-2.344-6.988-2.344-11.587,0-4.728.794-8.719,2.383-11.975,1.589-3.255,3.714-5.722,6.375-7.401,2.661-1.679,5.619-2.519,8.875-2.519,2.299,0,4.256.375,5.871,1.124,1.614.749,2.958,1.705,4.03,2.867,1.072,1.163,1.918,2.364,2.538,3.604h.349v-6.975h11.432v42.161c0,3.979-.891,7.278-2.674,9.901-1.783,2.621-4.23,4.572-7.343,5.852-3.113,1.278-6.698,1.918-10.753,1.918ZM424.284,243.615c1.989,0,3.682-.49,5.077-1.473,1.395-.981,2.46-2.383,3.197-4.204s1.104-4.011,1.104-6.568c0-2.531-.368-4.733-1.104-6.607-.736-1.873-1.802-3.326-3.197-4.359s-3.087-1.55-5.077-1.55-3.675.529-5.057,1.589c-1.382,1.06-2.428,2.525-3.139,4.398-.711,1.873-1.065,4.049-1.065,6.529,0,2.532.354,4.715,1.065,6.549.71,1.835,1.763,3.242,3.158,4.224,1.395.982,3.074,1.473,5.038,1.473Z"/>
    <path class="st0" d="M472.298,253.845c-4.366,0-8.132-.904-11.296-2.713-3.165-1.808-5.606-4.365-7.324-7.673-1.718-3.307-2.577-7.194-2.577-11.664,0-4.417.853-8.286,2.557-11.605,1.705-3.319,4.108-5.916,7.208-7.789s6.729-2.81,10.889-2.81c2.868,0,5.528.465,7.982,1.395,2.454.931,4.605,2.307,6.452,4.128,1.847,1.821,3.281,4.095,4.302,6.819,1.02,2.727,1.53,5.871,1.53,9.437v3.216h-36.31v-7.285h30.691l-5.387,1.899c0-2.222-.349-4.146-1.046-5.774-.698-1.627-1.725-2.887-3.081-3.778-1.356-.891-3.029-1.337-5.018-1.337s-3.682.452-5.077,1.356-2.46,2.145-3.197,3.72c-.736,1.576-1.104,3.385-1.104,5.426v5.115c0,2.402.413,4.443,1.24,6.122.826,1.68,1.996,2.952,3.507,3.817,1.511.866,3.274,1.298,5.29,1.298,1.369,0,2.616-.199,3.74-.601,1.124-.4,2.079-.981,2.867-1.743s1.389-1.698,1.802-2.81l10.501,1.511c-.672,2.48-1.879,4.645-3.623,6.491-1.744,1.848-3.927,3.281-6.549,4.302-2.622,1.02-5.613,1.53-8.971,1.53Z"/>
  </g>
  <g>
    <polygon class="st0" points="269.41 81.464 258.16 92.714 314.41 92.714 314.41 81.464 269.41 81.464"/>
    <polygon class="st0" points="246.91 126.464 235.66 126.464 235.66 137.714 258.16 137.714 258.16 126.464 258.16 92.714 246.91 103.964 246.91 126.464"/>
    <polygon class="st0" points="269.41 103.964 269.41 137.714 280.66 137.714 280.66 115.214 314.41 115.214 314.41 103.964 280.66 103.964 269.41 103.964"/>
    <polygon class="st0" points="291.91 148.964 303.16 137.714 303.16 126.464 291.91 126.464 291.91 148.964"/>
    <polygon class="st0" points="235.66 160.214 280.66 160.214 291.91 148.964 235.66 148.964 235.66 160.214"/>
  </g>
</svg>